# File created by Blade
# Date/Time:  Thu Jan 22 19:18:24 2015
#---------------------------------------------------------
:version 1.10
:name HOM
:units
  mass 1.0
  length 1.000000
  angle deg
:documentation
     Acclaim Skeleton File
:root
   axis xyz
   order TX TY TZ RX RY RZ
   position 0.000000 0.000000 0.000000
   orientation 0 0 0
:bonedata
   begin
      id 1
      name RightUpLeg_dum
      direction -1.000000 0.000000 0.000000
      length 4.478084
      axis 0.0 0.0 0.0 xyz
   end
   begin
      id 2
      name LeftUpLeg_dum
      direction 1.000000 0.000000 0.000000
      length 4.478084
      axis 0.0 0.0 0.0 xyz
   end
   begin
      id 3
      name Spine_dum
      direction 0.000000 1.000000 0.000000
      length 6.068208
      axis 0.0 0.0 0.0 xyz
   end
   begin
      id 4
      name RightUpLeg
      direction 0.000000 -1.000000 0.000000
      length 16.405774
      axis 0.0 0.0 0.0 xyz
      dof rx ry rz
   end
   begin
      id 5
      name RightLeg
      direction 0.000000 -1.000000 0.000000
      length 14.644143
      axis 0.0 0.0 0.0 xyz
      dof rx ry rz
   end
   begin
      id 6
      name RightFoot
      direction 0.000000 -0.258819 0.965926
      length 5.806150
      axis 15.0 0.0 0.0 xyz
      dof rx ry rz
   end
   begin
      id 7
      name RightToeBase
      direction 0.000000 0.000000 1.000000
      length 2.952750
      axis 0.0 0.0 0.0 xyz
      dof rx ry rz
   end
   begin
      id 8
      name LeftUpLeg
      direction 0.000000 -1.000000 0.000000
      length 16.405774
      axis 0.0 0.0 0.0 xyz
      dof rx ry rz
   end
   begin
      id 9
      name LeftLeg
      direction 0.000000 -1.000000 0.000000
      length 14.644143
      axis 0.0 0.0 0.0 xyz
      dof rx ry rz
   end
   begin
      id 10
      name LeftFoot
      direction 0.000000 -0.258819 0.965926
      length 5.806150
      axis 15.0 0.0 0.0 xyz
      dof rx ry rz
   end
   begin
      id 11
      name LeftToeBase
      direction 0.000000 0.000000 1.000000
      length 2.952750
      axis 0.0 0.0 0.0 xyz
      dof rx ry rz
   end
   begin
      id 12
      name Spine
      direction 0.000000 1.000000 0.000000
      length 0.000000
      axis 0.0 0.0 0.0 xyz
      dof rx ry rz
   end
   begin
      id 13
      name Spine_dum1
      direction 0.000000 1.000000 0.000000
      length 10.013923
      axis 0.0 0.0 0.0 xyz
   end
   begin
      id 14
      name Spine_dum2
      direction 0.000000 1.000000 0.000000
      length 10.013923
      axis 0.0 0.0 0.0 xyz
   end
   begin
      id 15
      name Spine_dum3
      direction 0.000000 1.000000 0.000000
      length 15.777476
      axis 0.0 0.0 0.0 xyz
   end
   begin
      id 16
      name RightShoulder
      direction -1.000000 0.000000 0.000000
      length 7.190220
      axis 0.0 0.0 90.0 xyz
      dof rx ry rz
   end
   begin
      id 17
      name RightArm
      direction -1.000000 0.000000 0.000000
      length 10.177469
      axis 0.0 0.0 90.0 xyz
      dof rx ry rz
   end
   begin
      id 18
      name RightForeArm
      direction -1.000000 0.000000 0.000000
      length 8.392114
      axis 0.0 0.0 90.0 xyz
      dof ry rz rx
   end
   begin
      id 19
      name RightHand
      direction -1.000000 0.000000 0.000000
      length 0.000000
      axis 0.0 0.0 90.0 xyz
      dof rx ry rz
   end
   begin
      id 20
      name RightHand_dum1
      direction -1.000000 0.000000 0.000000
      length 3.937000
      axis 0.0 0.0 90.0 xyz
   end
   begin
      id 21
      name RightHand_dum2
      direction 0.000000 0.000000 0.000000
      length 0.000000
      axis 0.0 0.0 90.0 xyz
   end
   begin
      id 22
      name RightHandThumb1
      direction 0.000000 0.000000 1.000000
      length 3.937000
      axis 0.0 0.0 90.0 xyz
      dof rx rz ry
   end
   begin
      id 23
      name LeftShoulder
      direction 1.000000 0.000000 0.000000
      length 7.190220
      axis 0.0 0.0 -90.0 xyz
      dof rx ry rz
   end
   begin
      id 24
      name LeftArm
      direction 1.000000 0.000000 0.000000
      length 10.177469
      axis 0.0 0.0 -90.0 xyz
      dof rx ry rz
   end
   begin
      id 25
      name LeftForeArm
      direction 1.000000 0.000000 0.000000
      length 8.392114
      axis 0.0 0.0 -90.0 xyz
      dof ry rz rx
   end
   begin
      id 26
      name LeftHand
      direction 1.000000 0.000000 0.000000
      length 0.000000
      axis 0.0 0.0 -90.0 xyz
      dof rx ry rz
   end
   begin
      id 27
      name LeftHand_dum1
      direction 1.000000 0.000000 0.000000
      length 3.937000
      axis 0.0 0.0 -90.0 xyz
   end
   begin
      id 28
      name LeftHand_dum2
      direction 0.000000 0.000000 0.000000
      length 0.000000
      axis 0.0 0.0 -90.0 xyz
   end
   begin
      id 29
      name LeftHandThumb1
      direction 0.000000 0.000000 1.000000
      length 3.937000
      axis 0.0 0.0 -90.0 xyz
      dof rx rz ry
   end
   begin
      id 30
      name Head
      direction 0.000000 1.000000 0.000000
      length 4.527550
      axis 0.0 0.0 0.0 xyz
      dof rx ry rz
   end
:hierarchy
   begin
      root RightUpLeg_dum LeftUpLeg_dum Spine_dum
      RightUpLeg_dum RightUpLeg
      LeftUpLeg_dum LeftUpLeg
      Spine_dum Spine
      RightUpLeg RightLeg
      RightLeg RightFoot
      RightFoot RightToeBase
      LeftUpLeg LeftLeg
      LeftLeg LeftFoot
      LeftFoot LeftToeBase
      Spine Spine_dum1 Spine_dum2 Spine_dum3
      Spine_dum1 RightShoulder
      Spine_dum2 LeftShoulder
      Spine_dum3 Head
      RightShoulder RightArm
      RightArm RightForeArm
      RightForeArm RightHand
      RightHand RightHand_dum1 RightHand_dum2
      RightHand_dum2 RightHandThumb1
      LeftShoulder LeftArm
      LeftArm LeftForeArm
      LeftForeArm LeftHand
      LeftHand LeftHand_dum1 LeftHand_dum2
      LeftHand_dum2 LeftHandThumb1
   end

# File created by Blade
# Date/Time:  Thu Jan 22 19:18:16 2015
# Frame Rate: 120.000 fps
#------------------------------------------------------
:FULLY-SPECIFIED
:DEGREES
417
root 3.241580 31.968845 -6.568030 77.482823 -38.992226 14.194028
RightUpLeg -97.969444 -22.041697 -23.934059
RightLeg 4.298049 -0.000000 -0.000000
RightFoot 3.925737 4.684438 12.489161
RightToeBase 6.772853 -0.000000 -0.000000
LeftUpLeg -76.981736 6.774983 -23.598154
LeftLeg -0.616184 -0.000000 0.000000
LeftFoot -7.381762 11.141780 -29.137407
LeftToeBase 8.341614 -0.000000 -0.000000
Spine 34.556429 -11.235723 13.608811
RightShoulder 1.463912 19.566010 -26.108913
RightArm 54.395017 15.368042 48.249272
RightForeArm -6.533153 -0.000000 45.782772
RightHand 10.760931 -0.000000 -0.322780
RightHandThumb1 -24.326973 -0.000000 -32.862282
LeftShoulder -6.327992 -37.317299 48.846361
LeftArm 75.296656 3.583696 -34.938147
LeftForeArm 49.380421 -0.000000 33.788636
LeftHand 2.086851 -0.000000 -2.632604
LeftHandThumb1 -26.253704 0.000000 33.147579
Head -54.361815 0.158721 11.968186
418
root 3.244236 31.969769 -6.557309 77.575926 -39.141179 14.214059
RightUpLeg -98.181558 -22.059294 -23.888490
RightLeg 4.387849 -0.000000 -0.000000
RightFoot 3.900391 4.812959 12.208950
RightToeBase 6.852072 -0.000000 -0.000000
LeftUpLeg -77.020472 6.704111 -23.564251
LeftLeg -0.636958 -0.000000 0.000000
LeftFoot -7.465514 11.287996 -29.224821
LeftToeBase 8.318129 -0.000000 -0.000000
Spine 34.812035 -11.387183 13.399227
RightShoulder 1.614870 19.598850 -26.077280
RightArm 54.623257 15.667439 48.450674
RightForeArm -6.151411 -0.000000 45.846604
RightHand 10.583507 -0.000000 -0.090553
RightHandThumb1 -24.326973 -0.000000 -32.862282
LeftShoulder -6.334375 -37.556822 48.959697
LeftArm 75.546687 3.545555 -35.082762
LeftForeArm 49.788976 0.000000 33.000888
LeftHand 2.178669 0.000000 -2.923775
LeftHandThumb1 -26.253704 0.000000 33.147579
Head -54.422343 0.366244 11.901488
419
root 3.247070 31.970597 -6.548825 77.646419 -39.260943 14.239959
RightUpLeg -98.318343 -22.093396 -23.912731
RightLeg 4.428283 -0.000000 -0.000000
RightFoot 3.910308 4.816398 12.111699
RightToeBase 6.820730 -0.000000 -0.000000
LeftUpLeg -77.053158 6.627712 -23.512157
LeftLeg -0.644718 -0.000000 0.000000
LeftFoot -7.559898 11.454644 -29.278754
LeftToeBase 8.428973 -0.000000 -0.000000
Spine 35.106471 -11.631164 13.181710
RightShoulder 1.782414 19.833893 -26.079241
RightArm 54.799068 15.825821 48.676241
RightForeArm -5.779532 -0.000000 45.849380
RightHand 10.650013 0.000000 -0.145499
RightHandThumb1 -24.326973 -0.000000 -32.862282
LeftShoulder -6.354993 -37.864535 49.036368
LeftArm 75.667885 3.566867 -34.988650
LeftForeArm 50.088314 -0.000000 32.311002
LeftHand 2.161016 0.000000 -3.116244
LeftHandThumb1 -26.253704 0.000000 33.147579
Head -54.517728 0.521193 11.827406
420
root 3.249144 31.971621 -6.540540 77.750296 -39.361987 14.261208
RightUpLeg -98.462532 -22.135631 -23.929057
RightLeg 4.447016 -0.000000 -0.000000
RightFoot 3.934724 4.780474 12.124311
RightToeBase 6.851435 -0.000000 -0.000000
LeftUpLeg -77.117347 6.552645 -23.498963
LeftLeg -0.663926 -0.000000 0.000000
LeftFoot -7.612070 11.573028 -29.314722
LeftToeBase 8.403993 -0.000000 -0.000000
Spine 35.338446 -11.825787 13.002965
RightShoulder 1.951454 19.985808 -26.020315
RightArm 54.981021 16.004384 48.758262
RightForeArm -5.358821 -0.000000 45.872355
RightHand 10.406257 -0.000000 -0.038933
RightHandThumb1 -24.326973 -0.000000 -32.862282
LeftShoulder -6.344749 -38.100455 49.115037
LeftArm 75.848015 3.554518 -34.932722
LeftForeArm 50.240980 0.000000 31.562598
LeftHand 2.270364 -0.000000 -3.166359
LeftHandThumb1 -26.253704 0.000000 33.147579
Head -54.576163 0.681577 11.793764
421
root 3.255871 31.973027 -6.530249 77.853677 -39.475223 14.297247
RightUpLeg -98.606091 -22.195768 -23.952826
RightLeg 4.449840 -0.000000 -0.000000
RightFoot 3.981445 4.753828 12.155032
RightToeBase 6.758933 -0.000000 -0.000000
LeftUpLeg -77.182292 6.461218 -23.529074
LeftLeg -0.685169 -0.000000 0.000000
LeftFoot -7.681136 11.678327 -29.386570
LeftToeBase 8.476417 -0.000000 -0.000000
Spine 35.542320 -12.030748 12.839999
RightShoulder 2.086793 20.065962 -26.027557
RightArm 55.246117 16.236320 48.955945
RightForeArm -4.752139 -0.000000 45.847918
RightHand 10.437927 -0.000000 -0.199185
RightHandThumb1 -24.326973 -0.000000 -32.862282
LeftShoulder -6.308361 -38.484999 49.183326
LeftArm 75.852470 3.655322 -34.966943
LeftForeArm 50.563836 0.000000 30.896587
LeftHand 2.435039 -0.000000 -3.143412
LeftHandThumb1 -26.253704 0.000000 33.147579
Head -54.638169 0.847730 11.693590
422
root 3.261216 31.973427 -6.521708 77.916363 -39.574051 14.330097
RightUpLeg -98.720136 -22.228487 -23.906306
RightLeg 4.405023 -0.000000 -0.000000
RightFoot 4.045032 4.771478 12.110018
RightToeBase 6.865762 -0.000000 -0.000000
LeftUpLeg -77.218890 6.398724 -23.609681
LeftLeg -0.710881 -0.000000 0.000000
LeftFoot -7.718923 11.744265 -29.419866
LeftToeBase 8.499257 -0.000000 -0.000000
Spine 35.797467 -12.299285 12.631248
RightShoulder 2.286117 20.228596 -25.988796
RightArm 55.504555 16.429709 49.098344
RightForeArm -3.941380 0.000000 45.773917
RightHand 10.295198 -0.000000 -0.139217
RightHandThumb1 -24.326973 -0.000000 -32.862282
LeftShoulder -6.316958 -38.708730 49.235933
LeftArm 75.931820 3.667146 -34.923664
LeftForeArm 50.675999 -0.000000 30.266454
LeftHand 2.557642 -0.000000 -3.260355
LeftHandThumb1 -26.253704 0.000000 33.147579
Head -54.637315 1.042406 11.669320
423
root 3.266759 31.975550 -6.510557 78.013606 -39.683529 14.343765
RightUpLeg -98.881194 -22.246223 -23.810227
RightLeg 4.396491 -0.000000 -0.000000
RightFoot 4.090504 4.808540 12.012253
RightToeBase 6.865143 -0.000000 -0.000000
LeftUpLeg -77.272793 6.360510 -23.752834
LeftLeg -0.762106 -0.000000 0.000000
LeftFoot -7.706161 11.747004 -29.416351
LeftToeBase 8.571967 -0.000000 -0.000000
Spine 36.035275 -12.443925 12.466921
RightShoulder 2.365804 20.399603 -25.965252
RightArm 55.718404 16.588859 49.240474
RightForeArm -3.185733 -0.000000 45.663967
RightHand 10.311436 -0.000000 -0.138646
RightHandThumb1 -24.326973 -0.000000 -32.862282
LeftShoulder -6.312019 -39.073595 49.358136
LeftArm 75.952458 3.761170 -35.048880
LeftForeArm 50.966511 -0.000000 29.666823
LeftHand 2.682893 -0.000000 -3.274465
LeftHandThumb1 -26.253704 0.000000 33.147579
Head -54.712390 1.172360 11.693760
424
root 3.271985 31.978344 -6.505282 78.094364 -39.765449 14.356681
RightUpLeg -99.000413 -22.271271 -23.789175
RightLeg 4.409089 -0.000000 -0.000000
RightFoot 4.114614 4.795445 12.077300
RightToeBase 6.856360 -0.000000 -0.000000
LeftUpLeg -77.341827 6.336241 -23.904652
LeftLeg -0.777358 -0.000000 0.000000
LeftFoot -7.657805 11.698482 -29.436804
LeftToeBase 8.521154 -0.000000 -0.000000
Spine 36.310013 -12.697219 12.241491
RightShoulder 2.504597 20.644027 -25.938625
RightArm 56.020873 16.730890 49.488644
RightForeArm -2.383615 0.000000 45.468213
RightHand 10.203961 -0.000000 0.129547
RightHandThumb1 -24.326973 -0.000000 -32.862282
LeftShoulder -6.380332 -39.314948 49.449992
LeftArm 76.018793 3.794671 -34.961038
LeftForeArm 51.187406 -0.000000 29.060890
LeftHand 2.900684 -0.000000 -3.315538
LeftHandThumb1 -26.253704 0.000000 33.147579
Head -54.722932 1.386309 11.745971
425
root 3.275746 31.982185 -6.501336 78.205240 -39.805132 14.341464
RightUpLeg -99.135085 -22.287896 -23.727560
RightLeg 4.444694 -0.000000 -0.000000
RightFoot 4.124542 4.789937 12.071917
RightToeBase 6.931895 -0.000000 -0.000000
LeftUpLeg -77.448199 6.320371 -24.034861
LeftLeg -0.762287 -0.000000 0.000000
LeftFoot -7.633705 11.633648 -29.403887
LeftToeBase 8.595298 -0.000000 -0.000000
Spine 36.536745 -12.867102 12.130494
RightShoulder 2.622337 20.858217 -25.932509
RightArm 56.251536 16.923095 49.765890
RightForeArm -1.589706 -0.000000 45.328517
RightHand 10.159107 -0.000000 0.350227
RightHandThumb1 -24.326973 -0.000000 -32.862282
LeftShoulder -6.393099 -39.681821 49.532718
LeftArm 76.025969 3.905224 -34.903559
LeftForeArm 51.195491 -0.000000 28.483667
LeftHand 2.972223 -0.000000 -3.529605
LeftHandThumb1 -26.253704 0.000000 33.147579
Head -54.713645 1.466475 11.850930
426
root 3.284517 31.986024 -6.497284 78.308460 -39.847571 14.343408
RightUpLeg -99.261561 -22.316708 -23.605377
RightLeg 4.403183 -0.000000 -0.000000
RightFoot 4.180886 4.807109 12.087850
RightToeBase 6.996620 -0.000000 -0.000000
LeftUpLeg -77.545671 6.268677 -24.092993
LeftLeg -0.747842 -0.000000 0.000000
LeftFoot -7.646653 11.636756 -29.373366
LeftToeBase 8.624843 -0.000000 -0.000000
Spine 36.743511 -13.034172 12.009384
RightShoulder 2.726064 21.168543 -25.898352
RightArm 56.414830 17.010115 49.908415
RightForeArm -0.669724 -0.000000 45.098241
RightHand 10.053552 -0.000000 0.415988
RightHandThumb1 -24.326973 -0.000000 -32.862282
LeftShoulder -6.428986 -40.013261 49.660296
LeftArm 76.018528 4.018080 -34.989961
LeftForeArm 51.390850 -0.000000 27.928029
LeftHand 2.853989 0.000000 -3.626186
LeftHandThumb1 -26.253704 0.000000 33.147579
Head -54.679960 1.612015 11.951499
427
root 3.292443 31.987091 -6.495239 78.362262 -39.862672 14.345294
RightUpLeg -99.328910 -22.344563 -23.493035
RightLeg 4.353830 -0.000000 -0.000000
RightFoot 4.229462 4.859055 12.157725
RightToeBase 7.001591 -0.000000 -0.000000
LeftUpLeg -77.609682 6.234027 -24.120793
LeftLeg -0.728636 -0.000000 0.000000
LeftFoot -7.663052 11.626622 -29.388228
LeftToeBase 8.597290 -0.000000 -0.000000
Spine 37.006908 -13.203501 11.904271
RightShoulder 2.820927 21.335713 -25.882878
RightArm 56.707821 17.227130 50.161252
RightForeArm 0.143778 0.000000 44.832147
RightHand 9.957180 -0.000000 0.490760
RightHandThumb1 -24.326973 -0.000000 -32.862282
LeftShoulder -6.459362 -40.331365 49.760907
LeftArm 76.044291 4.091419 -35.019567
LeftForeArm 51.382341 0.000000 27.338734
LeftHand 2.786994 -0.000000 -3.862917
LeftHandThumb1 -26.253704 0.000000 33.147579
Head -54.635795 1.717968 12.058629
